<svg width="775" height="708" version="1" xmlns="http://www.w3.org/2000/svg" xmlns:xlink="http://www.w3.org/1999/xlink">
  <use xlink:href="#path0_stroke" transform="translate(1 1)" fill="#C7B6B1"/>
  <defs>
    <path id="path0_stroke" d="M0 76zm0 554zm44 76v1-1zm685 0v1-1zm44-76h1-1zm0-554h1-1zM729 0zM44 0zM0 76v554h1V76H0zm0 554l44 76h1L0 629v1zm44 77h685v-1H44v1zm685-1l44-76v-1l-45 77h1zm45-76V76h-1v554h1zm-1-554L729 0h-1l45 77v-1zM729 0H44v1h685V0zM44 0L0 76v1L45 0h-1z"/>
  </defs>
</svg>